<svg width="1039" height="182" viewBox="0 0 1039 182" fill="none" xmlns="http://www.w3.org/2000/svg">
<path d="M16.1233 106L24 175.5C24 175.5 132.809 168.402 125 125C117.357 82.5206 16.1233 106 16.1233 106ZM16.1233 106L7 25.5C7 25.5 85.7446 15.6819 94 50C102.761 86.4204 16.1233 106 16.1233 106ZM247.5 25.5V167.5H331M459 9C459 9 487.997 9.07799 505 15C532.911 24.7209 552.228 43.7095 533.5 56C512.785 69.5939 478.584 79.4207 470.5 56C461.581 30.1614 507.231 17.9406 533.5 25.5C562.452 33.8316 581.422 67.5282 568 94.5C555.465 119.691 521.843 129.211 498.5 113.5C467.68 92.7558 514.367 35.6673 551.5 34.5C596.712 33.0788 608.439 121.699 572 148.5C530.95 178.692 440 122.5 449 94.5C458 66.5 464.521 66.6836 491 69C518.35 71.3926 539.43 98.1938 533.5 125C527.52 152.03 497.912 161.372 470.5 157.5C427.237 151.389 401.926 72.297 439.5 50C459.315 38.2417 498.5 50 498.5 50L511.5 79.5M946.5 161.5L942.991 120M942.991 120L935 25.5C935 25.5 1023 6 1031.5 63.5C1040 121 942.991 120 942.991 120Z" stroke="black" stroke-width="13" stroke-linecap="round" stroke-linejoin="round"/>
<path d="M819 84.4999C817.439 46.9729 789.542 14.3463 752 15.4999C715.529 16.6206 690.507 48.0426 689 84.4999C687.493 120.957 713.766 156.335 752 157.5C791.256 158.696 820.632 123.74 819 84.4999Z" stroke="url(#paint0_linear_271_12470)" stroke-width="20" stroke-linecap="round" stroke-linejoin="round"/>
<path d="M455.783 10C455.783 10 484.78 10.078 501.783 16C529.694 25.7209 549.011 44.7095 530.283 57C509.569 70.5939 475.368 80.4207 467.283 57C458.364 31.1614 504.015 18.9406 530.283 26.5C559.235 34.8316 578.205 68.5282 564.783 95.5C552.248 120.691 518.626 130.211 495.283 114.5C464.463 93.7558 511.15 36.6673 548.283 35.5C593.495 34.0788 605.222 122.699 568.783 149.5C527.733 179.692 436.783 123.5 445.783 95.5C454.783 67.5 461.304 67.6836 487.783 70C515.133 72.3926 536.213 99.1938 530.283 126C524.303 153.03 494.695 162.372 467.283 158.5C424.021 152.389 398.709 73.297 436.283 51C456.098 39.2417 495.283 51 495.283 51L508.283 80.5" stroke="url(#paint1_linear_271_12470)" stroke-width="20" stroke-linecap="round" stroke-linejoin="round"/>
<defs>
<linearGradient id="paint0_linear_271_12470" x1="670.349" y1="157.53" x2="836.075" y2="169.888" gradientUnits="userSpaceOnUse">
<stop stop-color="#394DFF"/>
<stop offset="0.363997" stop-color="#9C39FF"/>
<stop offset="1" stop-color="#FF9839"/>
</linearGradient>
<linearGradient id="paint1_linear_271_12470" x1="393.381" y1="159.337" x2="612.148" y2="179.889" gradientUnits="userSpaceOnUse">
<stop stop-color="#394DFF"/>
<stop offset="0.363997" stop-color="#9C39FF"/>
<stop offset="1" stop-color="#FF9839"/>
</linearGradient>
</defs>
</svg>
