<svg width="12" height="12" viewBox="0 0 12 12" fill="none" xmlns="http://www.w3.org/2000/svg">
<path opacity="0.5" fill-rule="evenodd" clip-rule="evenodd" d="M1.08879 9.77403C0.698267 10.1646 0.698267 10.7977 1.08879 11.1882C1.47932 11.5788 2.11248 11.5788 2.50301 11.1882L6.26966 7.42158L10.1342 11.2861C10.5247 11.6767 11.1579 11.6767 11.5484 11.2861C11.939 10.8956 11.939 10.2624 11.5484 9.87192L7.68388 6.00737L11.2634 2.42781C11.654 2.03729 11.654 1.40412 11.2634 1.0136C10.8729 0.623072 10.2397 0.623072 9.84922 1.0136L6.26966 4.59316L2.788 1.11149C2.39747 0.720966 1.76431 0.720966 1.37378 1.11149C0.98326 1.50201 0.98326 2.13518 1.37378 2.5257L4.85545 6.00737L1.08879 9.77403Z" fill="black"/>
</svg>
