<svg width="81" height="80" viewBox="0 0 81 80" fill="none" xmlns="http://www.w3.org/2000/svg">
<mask id="mask0_868_19895" style="mask-type:alpha" maskUnits="userSpaceOnUse" x="0" y="0" width="81" height="80">
<ellipse cx="40.8262" cy="40.0516" rx="40" ry="39.3622" fill="white"/>
</mask>
<g mask="url(#mask0_868_19895)">
<path d="M27.2358 53.3365L7.63184 69.9891C10.0737 72.3495 23.1375 81.911 39.5795 81.911C56.0214 81.911 70.2437 70.461 74.0206 64.5346L52.2358 53.3365L60.7358 34.1475L45.2358 16.9265L19.2358 21.8468L15.7358 45.4641L27.2358 53.3365Z" fill="#963333"/>
<path d="M79.8262 40.0541C79.8262 61.2246 62.3805 78.4141 40.8262 78.4141C19.2718 78.4141 1.82617 61.2246 1.82617 40.0541C1.82617 18.8836 19.2718 1.69409 40.8262 1.69409C62.3805 1.69409 79.8262 18.8836 79.8262 40.0541Z" stroke="black" stroke-width="2"/>
</g>
</svg>
