<svg width="36" height="36" viewBox="0 0 36 36" fill="none" xmlns="http://www.w3.org/2000/svg">
<circle cx="18.1957" cy="17.54" r="17.5" fill="black"/>
<path fill-rule="evenodd" clip-rule="evenodd" d="M22.7473 14.0805C23.4297 14.4364 23.8957 15.1505 23.8957 15.9734V22.9067C23.8957 24.0849 22.9406 25.04 21.7623 25.04H14.829C13.6508 25.04 12.6957 24.0849 12.6957 22.9067V15.9734C12.6957 15.1505 13.1616 14.4364 13.8441 14.0805C13.8126 13.5548 13.8636 13.0241 13.9979 12.5104C14.2473 11.5571 14.7712 10.7106 15.4963 10.0896C16.2213 9.46861 17.1111 9.10431 18.0409 9.04778C18.9706 8.99126 19.8937 9.24534 20.6807 9.77439C21.4677 10.3035 22.0791 11.081 22.4291 11.9979C22.6823 12.6611 22.7897 13.3732 22.7473 14.0805ZM15.4999 13.84H21.0914C21.0991 13.4391 21.0304 13.0383 20.8869 12.6626C20.6675 12.0878 20.2842 11.6004 19.7908 11.2687C19.2975 10.937 18.7188 10.7778 18.1359 10.8132C17.5531 10.8486 16.9953 11.077 16.5407 11.4663C16.0862 11.8556 15.7578 12.3863 15.6015 12.9839C15.5281 13.2642 15.4944 13.5526 15.4999 13.84Z" fill="white"/>
</svg>
