<svg width="36" height="36" viewBox="0 0 36 36" fill="none" xmlns="http://www.w3.org/2000/svg">
<circle cx="18.1957" cy="17.54" r="17.5" fill="black"/>
<path fill-rule="evenodd" clip-rule="evenodd" d="M23.3672 24.2863C21.9346 25.3862 20.1415 26.04 18.1957 26.04C17.5647 26.04 16.9499 25.9713 16.3581 25.8409C16.7271 25.5113 17.0756 24.9893 17.3382 24.5959C17.4083 24.4908 17.4723 24.3949 17.529 24.3143C18.1247 23.4665 19.016 23.1158 20.0178 22.9467C20.6422 22.8413 21.6253 22.6922 22.2601 22.879C22.786 23.0336 23.133 23.716 23.3672 24.2863ZM26.6935 17.7344C25.9961 19.9691 25.3003 22.1647 24.7594 22.3525C24.0841 22.587 23.5556 20.5011 23.0212 18.3917L23.0212 18.3917C22.5304 16.4546 22.0346 14.4978 21.4155 14.2997C20.264 13.9312 19.8138 13.2064 19.8138 12.0265C19.8138 11.048 20.0186 10.1211 20.5154 9.36043C24.0823 10.37 26.6957 13.6498 26.6957 17.54C26.6957 17.605 26.6949 17.6698 26.6935 17.7344ZM28.0585 13.9298C28.4707 15.0555 28.6957 16.2715 28.6957 17.54C28.6957 21.1572 26.8667 24.3471 24.0831 26.2355C22.404 27.3745 20.3775 28.04 18.1957 28.04C16.5434 28.04 14.9802 27.6584 13.5895 26.9784C13.4549 26.9126 13.322 26.844 13.1908 26.7727C10.1522 25.1221 8.01956 22.0152 7.72949 18.3888C7.70709 18.1088 7.69568 17.8258 7.69568 17.54C7.69568 13.5771 9.89109 10.127 13.132 8.33948C13.1516 8.3287 13.1711 8.31799 13.1908 8.30733C14.6785 7.49912 16.3835 7.04004 18.1957 7.04004C19.6593 7.04004 21.053 7.3395 22.3188 7.8805C24.9711 9.0141 27.062 11.2082 28.0585 13.9298ZM13.1529 10.6968C11.0558 12.2447 9.69568 14.7335 9.69568 17.54C9.69568 17.7238 9.70151 17.9063 9.71301 18.0872C10.0563 17.9909 10.3953 17.8668 10.7341 17.7063C11.3764 17.4021 11.963 16.9608 12.2803 16.3079C12.9506 14.9286 13.0618 13.2533 13.1243 11.7554C13.139 11.4033 13.1481 11.0503 13.1529 10.6968ZM17.2852 16.3143V16.3143L17.2852 16.3136C17.2796 16.1387 17.274 15.9642 17.269 15.79C17.2149 15.8194 17.1386 15.8808 17.0539 15.9489C16.9018 16.0714 16.7226 16.2155 16.5966 16.2345C16.3721 16.2683 16.1852 16.297 15.9725 16.3914C14.6514 16.9775 14.2763 18.8249 14.0278 20.2C14.0229 20.2268 14.0129 20.2735 13.9998 20.3346L13.9998 20.3347C13.913 20.7404 13.6895 21.784 13.926 21.8966C13.9766 21.9207 14.0505 21.9158 14.116 21.9114C14.14 21.9098 14.1629 21.9083 14.1831 21.9083L14.2213 21.9083C14.5171 21.9083 14.812 21.9084 15.1073 21.8821C15.515 21.8459 15.8912 21.7644 16.2671 21.5713C16.5464 21.4278 16.8015 21.2197 16.9395 20.9118C17.231 20.2613 17.2793 19.4713 17.3065 18.7649C17.3377 17.952 17.3114 17.1297 17.2852 16.3144V16.3143V16.3143Z" fill="white"/>
</svg>
