<svg width="27" height="27" viewBox="0 0 27 27" fill="none" xmlns="http://www.w3.org/2000/svg">
<path d="M3.3904 11.7154L3.83124 11.1086L3.3904 11.7154L8.46414 15.4017L6.52614 21.3662C6.15195 22.5179 7.47006 23.4755 8.4497 22.7638L13.5234 19.0775L18.5972 22.7638C19.5768 23.4755 20.8949 22.5179 20.5207 21.3662L18.5827 15.4017L23.6565 11.7154C24.6361 11.0036 24.1327 9.45412 22.9217 9.45412H16.6503L14.7123 3.48958C14.3381 2.33793 12.7088 2.33794 12.3346 3.48958L10.3966 9.45412H4.12513C2.91422 9.45412 2.41076 11.0036 3.3904 11.7154ZM13.3765 18.9707L13.3769 18.971L13.3765 18.9707Z" fill="black" stroke="black" stroke-width="1.5"/>
</svg>
