<svg width="36" height="36" viewBox="0 0 36 36" fill="none" xmlns="http://www.w3.org/2000/svg">
<g clip-path="url(#clip0_1958_21261)">
<path d="M4.84893 30.888C2.27655 28.3156 3.24096 23.869 6.50663 22.266C9.70044 20.6983 13.2425 18.6492 15.5151 16.3981C17.8873 14.0483 20.0464 10.3473 21.6843 7.04124C23.304 3.77222 27.7615 2.81754 30.3412 5.39724C32.9774 8.03337 31.914 12.6122 28.5334 14.1839C25.207 15.7303 21.5412 17.7803 19.2317 20.1147C17.0209 22.3494 15.0782 25.8548 13.6005 29.0649C12.0459 32.442 7.47771 33.5168 4.84893 30.888Z" fill="url(#paint0_linear_1958_21261)"/>
<path d="M4.84893 30.888C2.27655 28.3156 3.24096 23.869 6.50663 22.266C9.70044 20.6983 13.2425 18.6492 15.5151 16.3981C17.8873 14.0483 20.0464 10.3473 21.6843 7.04124C23.304 3.77222 27.7615 2.81754 30.3412 5.39724C32.9774 8.03337 31.914 12.6122 28.5334 14.1839C25.207 15.7303 21.5412 17.7803 19.2317 20.1147C17.0209 22.3494 15.0782 25.8548 13.6005 29.0649C12.0459 32.442 7.47771 33.5168 4.84893 30.888Z" fill="black"/>
</g>
<defs>
<linearGradient id="paint0_linear_1958_21261" x1="27.6699" y1="7.8243" x2="6.06127" y2="29.0856" gradientUnits="userSpaceOnUse">
<stop stop-color="#EE6B41"/>
<stop offset="0.28125" stop-color="#FFB5A8" stop-opacity="0.9"/>
<stop offset="0.78125" stop-color="#A170BF" stop-opacity="0.85"/>
<stop offset="1" stop-color="#213C9C"/>
</linearGradient>
<clipPath id="clip0_1958_21261">
<rect width="35" height="35" fill="white" transform="translate(0.210938 0.757812)"/>
</clipPath>
</defs>
</svg>
