<svg width="36" height="36" viewBox="0 0 36 36" fill="none" xmlns="http://www.w3.org/2000/svg">
<circle cx="18.1957" cy="17.54" r="17.5" fill="black"/>
<path d="M19.1956 21.7583C17.9903 24.2358 14.8567 28.5883 11.9642 26.1777C9.0716 23.7671 11.8303 19.4149 13.5712 17.54" stroke="white" stroke-width="2"/>
<path d="M19.1956 21.7583C17.9903 24.2358 14.8567 28.5883 11.9642 26.1777C9.0716 23.7671 11.8303 19.4149 13.5712 17.54" stroke="white" stroke-width="2"/>
<path d="M19.1956 21.7583C17.9903 24.2358 14.8567 28.5883 11.9642 26.1777C9.0716 23.7671 11.8303 19.4149 13.5712 17.54" stroke="white" stroke-width="2"/>
<path d="M16.4071 13.0689C17.623 10.4428 20.7843 5.82933 23.7024 8.38443C26.6204 10.9395 23.8374 15.5528 22.0811 17.54" stroke="white" stroke-width="2"/>
<path d="M16.4071 13.0689C17.623 10.4428 20.7843 5.82933 23.7024 8.38443C26.6204 10.9395 23.8374 15.5528 22.0811 17.54" stroke="white" stroke-width="2"/>
<path d="M16.4071 13.0689C17.623 10.4428 20.7843 5.82933 23.7024 8.38443C26.6204 10.9395 23.8374 15.5528 22.0811 17.54" stroke="white" stroke-width="2"/>
<path d="M20.8042 12.2578L14.577 21.8997" stroke="white" stroke-width="2"/>
<path d="M20.8042 12.2578L14.577 21.8997" stroke="white" stroke-width="2"/>
<path d="M20.8042 12.2578L14.577 21.8997" stroke="white" stroke-width="2"/>
</svg>
